<svg xmlns="http://www.w3.org/2000/svg" viewBox="0 0 24 24" fill="currentColor">
  <path d="M12 .5a12 12 0 0 0-3.79 23.39c.6.11.82-.26.82-.58v-2.03c-3.34.73-4.04-1.61-4.04-1.61-.55-1.38-1.34-1.75-1.34-1.75-1.1-.75.08-.73.08-.73 1.21.09 1.84 1.24 1.84 1.24 1.08 1.84 2.84 1.31 3.53 1 .11-.78.42-1.31.76-1.61-2.67-.31-5.48-1.34-5.48-5.95 0-1.31.47-2.38 1.23-3.22-.12-.31-.53-1.57.12-3.27 0 0 1-.32 3.3 1.23a11.47 11.47 0 0 1 6 0c2.3-1.55 3.3-1.23 3.3-1.23.65 1.7.24 2.96.12 3.27.76.84 1.23 1.91 1.23 3.22 0 4.62-2.82 5.64-5.5 5.94.43.37.81 1.1.81 2.22v3.29c0 .32.22.69.83.58A12 12 0 0 0 12 .5Z"/>
</svg>
